<?xml version="1.0" standalone="no"?>
<!DOCTYPE svg PUBLIC "-//W3C//DTD SVG 20010904//EN"
 "http://www.w3.org/TR/2001/REC-SVG-20010904/DTD/svg10.dtd">
<svg version="1.0" xmlns="http://www.w3.org/2000/svg"
 width="1024.000000pt" height="1024.000000pt" viewBox="0 0 1024.000000 1024.000000"
 preserveAspectRatio="xMidYMid meet">
<metadata>
Created by potrace 1.11, written by Peter Selinger 2001-2013
</metadata>
<g transform="translate(0.000000,1024.000000) scale(0.100000,-0.100000)"
fill="#000000" stroke="none">
<path d="M0 7680 l0 -2560 1978 1 c1875 1 1982 2 2082 19 539 95 956 518 1044
1060 14 84 14 340 1 405 -23 113 -43 187 -64 240 -132 330 -351 568 -656 711
-120 57 -200 82 -322 102 -57 9 -103 20 -103 23 0 3 26 9 58 12 94 10 331 79
340 100 2 4 10 7 17 7 27 0 210 114 284 175 226 190 394 483 444 775 14 84 16
339 3 405 -4 17 -11 55 -17 85 -34 168 -130 368 -248 517 -84 107 -244 247
-341 299 -19 11 -37 21 -40 24 -25 25 -251 111 -340 129 -30 6 -66 14 -80 18
-14 4 -928 9 -2032 10 l-2008 3 0 -2560z m3944 2 c3 -5 -1 -9 -9 -9 -8 0 -12
4 -9 9 3 4 7 8 9 8 2 0 6 -4 9 -8z"/>
<path d="M7558 8635 c-2 -2 -19 -6 -39 -9 -188 -29 -387 -135 -525 -278 -76
-80 -153 -188 -185 -265 -11 -26 -25 -57 -30 -68 -5 -11 -19 -58 -31 -105 -31
-119 -31 -349 0 -462 93 -343 337 -593 677 -693 76 -23 111 -27 225 -28 164
-2 217 5 333 44 335 112 573 386 642 739 18 93 13 298 -9 389 -36 141 -114
299 -196 391 -12 14 -30 34 -39 45 -31 39 -149 133 -217 173 -144 85 -283 123
-471 127 -72 2 -133 2 -135 0z"/>
<path d="M5120 2565 c0 -1405 -2 -2555 -5 -2555 -3 0 -1153 1148 -2555 2550
-1402 1403 -2552 2550 -2555 2550 -3 0 -5 -1150 -5 -2555 l0 -2555 3968 3
c2182 1 3978 6 3992 10 14 3 44 8 65 11 76 8 261 46 360 75 495 143 932 429
1270 832 70 83 203 273 244 349 43 79 133 265 152 311 22 57 78 213 84 239 2
8 13 51 25 95 11 44 23 95 26 114 2 18 6 36 8 40 4 6 9 36 21 123 27 189 27
520 1 718 -5 31 -17 102 -20 115 -2 6 -6 28 -10 50 -4 22 -19 83 -33 135 -144
541 -462 1019 -908 1366 -56 43 -233 164 -242 164 -3 0 -14 6 -22 14 -20 18
-257 137 -331 166 -148 59 -367 124 -490 145 -19 3 -42 8 -50 10 -8 2 -42 7
-75 11 -33 3 -69 9 -80 12 -11 3 -653 8 -1427 9 l-1408 4 0 -2556z"/>
</g>
</svg>
